<mxfile host="app.diagrams.net" modified="2023-06-27T08:36:26.922Z" agent="Mozilla/5.0 (Windows NT 10.0; Win64; x64) AppleWebKit/537.36 (KHTML, like Gecko) Chrome/114.0.0.0 Safari/537.36" version="21.5.1" etag="9uelGfAU1QagNA8bgP5f" type="device">
  <diagram id="LcYTys5UZgGHO0fj3u2T" name="Page-1">
    <mxGraphModel dx="853" dy="317" grid="1" gridSize="10" guides="1" tooltips="1" connect="1" arrows="1" fold="1" page="1" pageScale="1" pageWidth="850" pageHeight="1100" math="0" shadow="0">
      <root>
        <mxCell id="0" />
        <mxCell id="1" parent="0" />
        <mxCell id="oKX8hFk81P5FgFM_nBHU-5" value="" style="edgeStyle=orthogonalEdgeStyle;rounded=0;orthogonalLoop=1;jettySize=auto;html=1;" edge="1" parent="1" source="oKX8hFk81P5FgFM_nBHU-1" target="oKX8hFk81P5FgFM_nBHU-2">
          <mxGeometry relative="1" as="geometry" />
        </mxCell>
        <mxCell id="oKX8hFk81P5FgFM_nBHU-1" value="&lt;font style=&quot;font-size: 18px;&quot;&gt;Publisher&lt;/font&gt;" style="rounded=1;whiteSpace=wrap;html=1;fillColor=#dae8fc;strokeColor=#6c8ebf;" vertex="1" parent="1">
          <mxGeometry x="320" y="80" width="120" height="40" as="geometry" />
        </mxCell>
        <mxCell id="oKX8hFk81P5FgFM_nBHU-6" value="" style="edgeStyle=orthogonalEdgeStyle;rounded=0;orthogonalLoop=1;jettySize=auto;html=1;" edge="1" parent="1" source="oKX8hFk81P5FgFM_nBHU-2" target="oKX8hFk81P5FgFM_nBHU-3">
          <mxGeometry relative="1" as="geometry" />
        </mxCell>
        <mxCell id="oKX8hFk81P5FgFM_nBHU-2" value="&lt;font style=&quot;font-size: 18px;&quot;&gt;Image Offer&lt;/font&gt;" style="rounded=1;whiteSpace=wrap;html=1;fillColor=#dae8fc;strokeColor=#6c8ebf;" vertex="1" parent="1">
          <mxGeometry x="320" y="160" width="120" height="40" as="geometry" />
        </mxCell>
        <mxCell id="oKX8hFk81P5FgFM_nBHU-7" value="" style="edgeStyle=orthogonalEdgeStyle;rounded=0;orthogonalLoop=1;jettySize=auto;html=1;" edge="1" parent="1" source="oKX8hFk81P5FgFM_nBHU-3" target="oKX8hFk81P5FgFM_nBHU-4">
          <mxGeometry relative="1" as="geometry" />
        </mxCell>
        <mxCell id="oKX8hFk81P5FgFM_nBHU-3" value="&lt;font style=&quot;font-size: 18px;&quot;&gt;SKU&lt;/font&gt;" style="rounded=1;whiteSpace=wrap;html=1;fillColor=#dae8fc;strokeColor=#6c8ebf;" vertex="1" parent="1">
          <mxGeometry x="320" y="240" width="120" height="40" as="geometry" />
        </mxCell>
        <mxCell id="oKX8hFk81P5FgFM_nBHU-4" value="&lt;font style=&quot;font-size: 18px;&quot;&gt;Version&lt;/font&gt;" style="rounded=1;whiteSpace=wrap;html=1;fillColor=#dae8fc;strokeColor=#6c8ebf;" vertex="1" parent="1">
          <mxGeometry x="320" y="320" width="120" height="40" as="geometry" />
        </mxCell>
      </root>
    </mxGraphModel>
  </diagram>
</mxfile>
